<svg width="1119" height="1027" xmlns="http://www.w3.org/2000/svg" xmlns:xlink="http://www.w3.org/1999/xlink" xml:space="preserve" overflow="hidden"><defs><filter id="fx0" x="-10%" y="-10%" width="120%" height="120%" filterUnits="userSpaceOnUse" primitiveUnits="userSpaceOnUse"><feComponentTransfer color-interpolation-filters="sRGB"><feFuncR type="discrete" tableValues="0.000000 0.000000"/><feFuncG type="discrete" tableValues="0.000000 0.000000"/><feFuncB type="discrete" tableValues="0.000000 0.000000"/><feFuncA type="linear" slope="0.650980" intercept="0.000000"/></feComponentTransfer><feGaussianBlur stdDeviation="5.347222 5.352490"/></filter><clipPath id="clip1"><path d="M1349.5 660.5C1091.58 660.5 882.5 869.583 882.5 1127.5 882.5 1385.42 1091.58 1594.5 1349.5 1594.5 1607.42 1594.5 1816.5 1385.42 1816.5 1127.5 1816.5 869.583 1607.42 660.5 1349.5 660.5ZM806 618 1925 618 1925 1645 806 1645Z" fill-rule="evenodd" clip-rule="evenodd"/></clipPath><clipPath id="clip2"><rect x="1.09476" y="0.874146" width="505.753" height="506.252"/></clipPath></defs><g transform="translate(-806 -618)"><g><g clip-path="url(#clip1)"><g clip-path="url(#clip2)" filter="url(#fx0)" transform="matrix(2 0 0 1.99803 860 620)"><g><g transform="matrix(1 0 0 1 0 1.21593e-05)"><path d="M18.1364 254C18.1364 123.624 123.723 17.9326 253.971 17.9326 384.219 17.9326 489.806 123.624 489.806 254 489.806 384.376 384.219 490.067 253.971 490.067 123.723 490.067 18.1364 384.376 18.1364 254Z" stroke="#000000" stroke-width="2" stroke-linecap="butt" stroke-linejoin="miter" stroke-miterlimit="8" stroke-opacity="1" fill="#4E95D9" fill-rule="evenodd" fill-opacity="1"/></g></g></g></g><path d="M882.5 1127.5C882.5 869.583 1091.58 660.5 1349.5 660.5 1607.42 660.5 1816.5 869.583 1816.5 1127.5 1816.5 1385.42 1607.42 1594.5 1349.5 1594.5 1091.58 1594.5 882.5 1385.42 882.5 1127.5Z" stroke="#000000" stroke-width="4.58333" stroke-linecap="butt" stroke-linejoin="miter" stroke-miterlimit="8" stroke-opacity="1" fill="#4E95D9" fill-rule="evenodd" fill-opacity="1"/><text fill="#E8E8E8" fill-opacity="1" font-family="Aptos,Aptos_MSFontService,sans-serif" font-style="normal" font-variant="normal" font-weight="700" font-stretch="normal" font-size="458" text-anchor="start" direction="ltr" writing-mode="lr-tb" unicode-bidi="normal" text-decoration="none" transform="matrix(1 0 0 1 1087.27 1233)">SP</text></g></g></svg>